<svg xmlns="http://www.w3.org/2000/svg" xmlns:xlink="http://www.w3.org/1999/xlink" width="512" height="512" viewBox="0 0 512 512">
  <defs>
    <clipPath id="clip-az-add-tlb">
      <rect width="512" height="512"/>
    </clipPath>
  </defs>
  <g id="az-add-tlb" clip-path="url(#clip-az-add-tlb)">
    <path id="az-add-tlb-2" data-name="az-add-tlb" d="M-3453-3415.5V-3540h-125.5a37.5,37.5,0,0,1-37.5-37.5,37.5,37.5,0,0,1,37.5-37.5H-3453v-125.5a37.5,37.5,0,0,1,37.5-37.5,37.5,37.5,0,0,1,37.5,37.5V-3615h124.5a37.5,37.5,0,0,1,37.5,37.5,37.5,37.5,0,0,1-37.5,37.5H-3378v124.5a37.5,37.5,0,0,1-37.5,37.5A37.5,37.5,0,0,1-3453-3415.5Z" transform="translate(3672 3834)" fill="#fff"/>
  </g>
</svg>
