<svg xmlns="http://www.w3.org/2000/svg" width="338" height="225" viewBox="0 0 338 225">
  <g id="az-addToQueue" transform="translate(-87 -179)">
    <rect id="Rectangle_114" data-name="Rectangle 114" width="338" height="30" rx="15" transform="translate(87 179)" fill="#fff"/>
    <rect id="Rectangle_118" data-name="Rectangle 118" width="338" height="30" rx="15" transform="translate(87 259)" fill="#fff"/>
    <rect id="Rectangle_114-2" data-name="Rectangle 114" width="220" height="30" rx="15" transform="translate(87 339)" fill="#fff"/>
    <path id="Union_21" data-name="Union 21" d="M-581-2210v-20h-20a15,15,0,0,1-15-15,15,15,0,0,1,15-15h20v-20a15,15,0,0,1,15-15,15,15,0,0,1,15,15v20h20a15,15,0,0,1,15,15,15,15,0,0,1-15,15h-20v20a15,15,0,0,1-15,15A15,15,0,0,1-581-2210Z" transform="translate(941 2599)" fill="#fff"/>
  </g>
</svg>
