<svg xmlns="http://www.w3.org/2000/svg" width="512" height="512" viewBox="0 0 512 512"><g fill="none" stroke="#fff" stroke-width="25" opacity="0.75"><circle cx="256" cy="256" r="256" stroke="none"/><circle cx="256" cy="256" r="243.5" fill="none"/></g><g transform="translate(393.75 131) rotate(90)" fill="#fff" stroke-linecap="round" stroke-linejoin="round"><path d="M 258.6159057617188 223.75 L 250 223.75 L 1.4210854715202e-14 223.75 L -8.61589241027832 223.75 L -4.341214179992676 216.2693176269531 L 120.6587829589844 -2.480678558349609 L 125 -10.07782173156738 L 129.3412170410156 -2.480678558349609 L 254.3412170410156 216.2693176269531 L 258.6159057617188 223.75 Z" stroke="none"/><path d="M 125 0 L 0 218.75 L 250 218.75 L 125 0 M 125 -10 C 128.5885925292969 -10 131.9020080566406 -8.077117919921875 133.6824188232422 -4.961380004882812 L 258.6824035644531 213.7886199951172 C 260.4509887695312 216.8836212158203 260.4383239746094 220.6861267089844 258.6490783691406 223.7692565917969 C 256.85986328125 226.8524169921875 253.5647125244141 228.75 250 228.75 L 0 228.75 C -3.564712524414062 228.75 -6.85986328125 226.8524169921875 -8.649078369140625 223.7692565917969 C -10.43832397460938 220.6861267089844 -10.45098876953125 216.8836212158203 -8.682403564453125 213.7886199951172 L 116.3175811767578 -4.961380004882812 C 118.0980072021484 -8.077117919921875 121.4114227294922 -10 125 -10 Z" stroke="none" fill="#fff"/></g></svg>