<svg xmlns="http://www.w3.org/2000/svg" width="338" height="225" viewBox="0 0 338 225">
  <g id="az-queue" transform="translate(-87 -140)">
    <rect id="Rectangle_114" data-name="Rectangle 114" width="220" height="30" rx="15" transform="translate(205 175)" fill="#fff"/>
    <rect id="Rectangle_116" data-name="Rectangle 116" width="338" height="30" rx="15" transform="translate(87 335)" fill="#fff"/>
    <rect id="Rectangle_118" data-name="Rectangle 118" width="338" height="30" rx="15" transform="translate(87 255)" fill="#fff"/>
    <g id="Polygon_1" data-name="Polygon 1" transform="translate(187 140) rotate(90)" fill="#fff" stroke-linecap="round" stroke-linejoin="round">
      <path d="M 83.81966400146484 95 L 16.18033409118652 95 C 13.66429996490479 95 12.36775016784668 93.34166717529297 11.92710018157959 92.62866973876953 C 11.4864330291748 91.91566467285156 10.58298301696777 90.01436614990234 11.70820045471191 87.76393127441406 L 45.52786636352539 20.1246166229248 C 45.97714996337891 19.22606658935547 46.61631774902344 18.52781677246094 47.42761611938477 18.04924964904785 C 48.19126510620117 17.59878349304199 49.08078384399414 17.36068344116211 50 17.36068344116211 C 50.91921615600586 17.36068344116211 51.80873489379883 17.59878349304199 52.57238388061523 18.04924964904785 C 53.38368225097656 18.52781677246094 54.02285003662109 19.22606658935547 54.47213363647461 20.1246166229248 L 88.29180145263672 87.76393127441406 C 89.41701507568359 90.01435089111328 88.51358032226562 91.9156494140625 88.07291412353516 92.62864685058594 C 87.63226318359375 93.34165191650391 86.33571624755859 95 83.81966400146484 95 Z" stroke="none"/>
      <path d="M 50 22.36066436767578 L 16.18035125732422 89.99999237060547 L 83.81967163085938 89.99999237060547 L 50.05502319335938 22.36729431152344 C 50.04962921142578 22.36544799804688 50.02919387817383 22.36066436767578 50 22.36066436767578 M 49.99999618530273 12.36067199707031 C 53.55081939697266 12.36067199707031 57.10164260864258 14.20329284667969 58.94425964355469 17.88853454589844 L 92.76393127441406 85.52786254882812 C 96.08843231201172 92.1768798828125 91.25347900390625 99.99999237060547 83.81965637207031 99.99999237060547 L 16.18035125732422 99.99999237060547 C 8.74652099609375 100.0000152587891 3.911567687988281 92.1768798828125 7.236068725585938 85.52786254882812 L 41.05571746826172 17.88853454589844 C 42.89834594726562 14.20329284667969 46.44917297363281 12.36067199707031 49.99999618530273 12.36067199707031 Z" stroke="none" fill="#fff"/>
    </g>
  </g>
</svg>
