<svg xmlns="http://www.w3.org/2000/svg" width="400" height="250" viewBox="0 0 400 250">
  <g id="az-rew" transform="translate(-37.25 -131)">
    <path id="Polygon_1" data-name="Polygon 1" d="M111.976,22.791a15,15,0,0,1,26.047,0l99.152,173.517a15,15,0,0,1-13.024,22.442H25.848a15,15,0,0,1-13.024-22.442Z" transform="translate(37.25 381) rotate(-90)" fill="#fff"/>
    <path id="Polygon_4" data-name="Polygon 4" d="M111.976,22.791a15,15,0,0,1,26.047,0l99.152,173.517a15,15,0,0,1-13.024,22.442H25.848a15,15,0,0,1-13.024-22.442Z" transform="translate(218.5 381) rotate(-90)" fill="#fff"/>
  </g>
</svg>
