<svg xmlns="http://www.w3.org/2000/svg" xmlns:xlink="http://www.w3.org/1999/xlink" width="512" height="512" viewBox="0 0 512 512">
  <defs>
    <clipPath id="clip-az-mazimize">
      <rect width="512" height="512"/>
    </clipPath>
  </defs>
  <g id="az-mazimize" clip-path="url(#clip-az-mazimize)">
    <g id="az-maximize">
      <path id="Subtraction_18" data-name="Subtraction 18" d="M-4855-1408h-175a49.694,49.694,0,0,1-19.463-3.929,49.843,49.843,0,0,1-15.893-10.715,49.841,49.841,0,0,1-10.716-15.893A49.687,49.687,0,0,1-5080-1458v-175a49.687,49.687,0,0,1,3.929-19.462,49.841,49.841,0,0,1,10.716-15.893,49.839,49.839,0,0,1,15.893-10.715A49.692,49.692,0,0,1-5030-1683h175a49.688,49.688,0,0,1,19.462,3.929,49.824,49.824,0,0,1,15.893,10.715,49.824,49.824,0,0,1,10.715,15.893A49.679,49.679,0,0,1-4805-1633v175a49.679,49.679,0,0,1-3.929,19.462,49.824,49.824,0,0,1-10.715,15.893,49.828,49.828,0,0,1-15.893,10.715A49.69,49.69,0,0,1-4855-1408Zm-160-225a15.017,15.017,0,0,0-15,15v145a15.017,15.017,0,0,0,15,15h145a15.017,15.017,0,0,0,15-15v-145a15.017,15.017,0,0,0-15-15Z" transform="translate(5199 1802)" fill="#fff"/>
    </g>
  </g>
</svg>
