<svg xmlns="http://www.w3.org/2000/svg" xmlns:xlink="http://www.w3.org/1999/xlink" width="512" height="512" viewBox="0 0 512 512">
  <defs>
    <clipPath id="clip-az-prefs">
      <rect width="512" height="512"/>
    </clipPath>
  </defs>
  <g id="az-prefs" clip-path="url(#clip-az-prefs)">
    <g id="az-prefs-2" data-name="az-prefs" transform="translate(2.467 -2.001)">
      <path id="Exclusion_1" data-name="Exclusion 1" d="M37.5,170.9a37.488,37.488,0,0,1-26.516-64.016L117.865,0a150.958,150.958,0,0,0,52.776,53.29L64.016,159.914A37.382,37.382,0,0,1,37.5,170.9Z" transform="translate(71.533 270.103)" fill="#fff"/>
      <path id="Subtraction_20" data-name="Subtraction 20" d="M125,250a125.927,125.927,0,0,1-25.191-2.54,124.31,124.31,0,0,1-44.7-18.808,125.365,125.365,0,0,1-45.289-55A124.409,124.409,0,0,1,2.54,150.192a126.222,126.222,0,0,1,0-50.384,124.321,124.321,0,0,1,18.809-44.7,125.37,125.37,0,0,1,55-45.288A124.381,124.381,0,0,1,99.809,2.54a126.1,126.1,0,0,1,55.44,1.145,124.321,124.321,0,0,1,27.57,10.462L89.645,107.322l53.034,53.032,93.174-93.174A124.454,124.454,0,0,1,250,125a125.938,125.938,0,0,1-2.54,25.192,124.3,124.3,0,0,1-18.808,44.7,125.365,125.365,0,0,1-55,45.288,124.381,124.381,0,0,1-23.464,7.283A125.929,125.929,0,0,1,125,250Z" transform="translate(186.534 76)" fill="#fff"/>
    </g>
  </g>
</svg>
