<svg xmlns="http://www.w3.org/2000/svg" xmlns:xlink="http://www.w3.org/1999/xlink" width="512" height="512" viewBox="0 0 512 512">
  <defs>
    <clipPath id="clip-az-restore">
      <rect width="512" height="512"/>
    </clipPath>
  </defs>
  <g id="az-restore" clip-path="url(#clip-az-restore)">
    <g id="az-restore-2" data-name="az-restore" transform="translate(-29 26)">
      <path id="Subtraction_18" data-name="Subtraction 18" d="M-4855-1395.289V-1573a60.069,60.069,0,0,0-60-60h-177.71a49.75,49.75,0,0,1,6.995-14.026,50.206,50.206,0,0,1,10.855-11.08,49.789,49.789,0,0,1,13.857-7.277,49.924,49.924,0,0,1,16-2.616h150a74.539,74.539,0,0,1,29.194,5.894,74.753,74.753,0,0,1,23.84,16.073,74.748,74.748,0,0,1,16.073,23.84A74.523,74.523,0,0,1-4820-1593v150a49.931,49.931,0,0,1-2.616,16,49.8,49.8,0,0,1-7.277,13.858,50.208,50.208,0,0,1-11.081,10.855,49.754,49.754,0,0,1-14.025,6.994Z" transform="translate(5270 1734)" fill="#fff"/>
      <path id="Subtraction_18-2" data-name="Subtraction 18" d="M-4855-1408h-175a49.694,49.694,0,0,1-19.463-3.929,49.843,49.843,0,0,1-15.893-10.715,49.841,49.841,0,0,1-10.716-15.893A49.687,49.687,0,0,1-5080-1458v-175a49.687,49.687,0,0,1,3.929-19.462,49.841,49.841,0,0,1,10.716-15.893,49.839,49.839,0,0,1,15.893-10.715A49.692,49.692,0,0,1-5030-1683h175a49.688,49.688,0,0,1,19.462,3.929,49.824,49.824,0,0,1,15.893,10.715,49.824,49.824,0,0,1,10.715,15.893A49.679,49.679,0,0,1-4805-1633v175a49.679,49.679,0,0,1-3.929,19.462,49.824,49.824,0,0,1-10.715,15.893,49.828,49.828,0,0,1-15.893,10.715A49.69,49.69,0,0,1-4855-1408Zm-160-225a15.017,15.017,0,0,0-15,15v145a15.017,15.017,0,0,0,15,15h145a15.017,15.017,0,0,0,15-15v-145a15.017,15.017,0,0,0-15-15Z" transform="translate(5199 1802)" fill="#fff"/>
    </g>
  </g>
</svg>
