<svg xmlns="http://www.w3.org/2000/svg" xmlns:xlink="http://www.w3.org/1999/xlink" width="512" height="512" viewBox="0 0 512 512">
  <defs>
    <clipPath id="clip-az-settings">
      <rect width="512" height="512"/>
    </clipPath>
  </defs>
  <g id="az-settings" clip-path="url(#clip-az-settings)">
    <g id="az-settings-2" data-name="az-settings">
      <path id="Subtraction_19" data-name="Subtraction 19" d="M-6110.456-2520.628a24.872,24.872,0,0,1-9.358-1.828,24.832,24.832,0,0,1-8.286-5.466,24.91,24.91,0,0,1-5.361-7.944,24.923,24.923,0,0,1-1.991-9.375,24.851,24.851,0,0,1,1.824-9.759l10.146-25.111a150.986,150.986,0,0,1-26.525-20.772,150.645,150.645,0,0,1-21.284-26.2l-24.921,10.577a24.842,24.842,0,0,1-9.757,1.994,25,25,0,0,1-13.646-4.048,24.866,24.866,0,0,1-9.378-11.189,24.845,24.845,0,0,1-1.994-9.725,24.924,24.924,0,0,1,1.827-9.408,24.909,24.909,0,0,1,5.222-8.036,24.843,24.843,0,0,1,8.189-5.61l24.921-10.579a151.327,151.327,0,0,1-3.859-26.937,150.465,150.465,0,0,1,3.261-40.09l-25.089-10.137a24.842,24.842,0,0,1-8.287-5.467,24.928,24.928,0,0,1-5.361-7.944,24.924,24.924,0,0,1-1.991-9.375,24.85,24.85,0,0,1,1.824-9.759,24.861,24.861,0,0,1,9.361-11.47,24.984,24.984,0,0,1,13.827-4.17,24.871,24.871,0,0,1,9.357,1.827l25.112,10.145a151,151,0,0,1,20.771-26.525,150.684,150.684,0,0,1,26.2-21.284l-10.577-24.919a24.847,24.847,0,0,1-1.994-9.726,24.906,24.906,0,0,1,1.827-9.409,24.913,24.913,0,0,1,5.222-8.037,24.845,24.845,0,0,1,8.19-5.611,24.836,24.836,0,0,1,9.755-1.993,25,25,0,0,1,13.646,4.049,24.875,24.875,0,0,1,9.378,11.191l10.579,24.918a151.4,151.4,0,0,1,26.937-3.856c2.652-.139,5.337-.209,7.98-.209a150.116,150.116,0,0,1,32.111,3.471l10.136-25.09a24.855,24.855,0,0,1,9.359-11.47,24.981,24.981,0,0,1,13.827-4.171,24.866,24.866,0,0,1,9.357,1.828,24.844,24.844,0,0,1,8.287,5.467,24.923,24.923,0,0,1,5.361,7.944,24.909,24.909,0,0,1,1.991,9.375,24.845,24.845,0,0,1-1.824,9.758l-10.146,25.114a150.982,150.982,0,0,1,26.526,20.77,150.612,150.612,0,0,1,21.285,26.2l24.921-10.579a24.832,24.832,0,0,1,9.756-1.994,25,25,0,0,1,13.646,4.049,24.876,24.876,0,0,1,9.378,11.191,24.838,24.838,0,0,1,1.994,9.724,24.919,24.919,0,0,1-1.827,9.408,24.917,24.917,0,0,1-5.221,8.037,24.842,24.842,0,0,1-8.19,5.611l-24.919,10.577a151.278,151.278,0,0,1,3.857,26.938,150.308,150.308,0,0,1-3.261,40.09l25.092,10.137a24.835,24.835,0,0,1,8.285,5.467,24.914,24.914,0,0,1,5.36,7.944,24.925,24.925,0,0,1,1.991,9.375,24.859,24.859,0,0,1-1.823,9.76,24.859,24.859,0,0,1-9.36,11.469,24.986,24.986,0,0,1-13.829,4.171,24.864,24.864,0,0,1-9.356-1.827l-25.112-10.145a151.028,151.028,0,0,1-20.772,26.526,150.689,150.689,0,0,1-26.2,21.285l10.577,24.918a24.852,24.852,0,0,1,1.995,9.726,24.91,24.91,0,0,1-1.826,9.408,24.925,24.925,0,0,1-5.22,8.037,24.855,24.855,0,0,1-8.189,5.612,25,25,0,0,1-8.457,1.959c-.43.023-.868.034-1.3.034a25,25,0,0,1-13.646-4.049,24.881,24.881,0,0,1-9.379-11.192l-10.576-24.918a151.223,151.223,0,0,1-26.938,3.858c-2.652.139-5.337.209-7.98.209a150.093,150.093,0,0,1-32.111-3.471l-10.136,25.089a24.856,24.856,0,0,1-9.359,11.469A24.983,24.983,0,0,1-6110.456-2520.628Zm65.565-287.263a100.114,100.114,0,0,0-100,100,100.113,100.113,0,0,0,100,100,100.112,100.112,0,0,0,100-100A100.113,100.113,0,0,0-6044.891-2807.891Z" transform="translate(6300.892 2963.891)" fill="#fff"/>
    </g>
  </g>
</svg>
